<svg xmlns="http://www.w3.org/2000/svg" viewBox="0 0 512 512">
  <!-- Dark background -->
  <rect width="512" height="512" rx="80" fill="#050d1a"/>
  <!-- Trophy icon centered and scaled up, with padding -->
  <g transform="translate(256,256) scale(16) translate(-12,-12)" fill="none" stroke="#00d4ff" stroke-width="1.5" stroke-linecap="round" stroke-linejoin="round">
    <polyline points="8 21 12 17 16 21"/>
    <path d="M5 3H19"/>
    <path d="M5 3C5 3 5 10 12 10 19 10 19 3 19 3"/>
    <path d="M5 3H3a2 2 0 0 0-2 2v1a4 4 0 0 0 4 4h1"/>
    <path d="M19 3h2a2 2 0 0 1 2 2v1a4 4 0 0 1-4 4h-1"/>
    <line x1="12" y1="17" x2="12" y2="10"/>
  </g>
</svg>
